<svg xmlns="http://www.w3.org/2000/svg" viewBox="0 0 281.69 281.59"><defs><style>.cls-1{fill:#fff;}</style></defs><g id="Layer_2" data-name="Layer 2"><g id="Layer_1-2" data-name="Layer 1"><path d="M140.86,94.24c23.9.68,44.26,10.24,62.85,24.18,6.24,4.67,11.86,10.18,17.66,15.42,3.26,2.94,3.65,6.27.41,9.54-20.43,20.55-43.83,35.84-73.3,39.24-16.6,1.92-32.4-2.06-47.39-9.23a144.7,144.7,0,0,1-39.28-27.95c-5.65-5.57-5.63-7.59,0-13.14C79.36,115.1,99.28,102,123.62,96.6,129.26,95.36,135.1,95,140.86,94.24Zm.66,78c18.81-.65,33.45-16.07,32.75-34.5a33.45,33.45,0,0,0-66.87,1.87C107.94,158.05,123.44,172.88,141.52,172.25Zm-39.34-54.9-1.44-1.52-31.65,23,32.48,23.41,1.14-1.12C94.74,146.64,94.66,132,102.18,117.35ZM179,161.22l1.19,1.11,31.39-22.83c-10.65-11-26.73-22-32-22.1C187.11,132.08,186.81,146.68,179,161.22Z"/><path d="M216.76,161.09l20.07,33.35c1.63,2.71,3.38,5.36,4.86,8.15,1.72,3.24.48,5.08-3.08,5.43-1.16.11-2.33,0-3.5,0h-189c-.84,0-1.67,0-2.5,0-4.93-.21-6-2-3.44-6.28,6.07-10.14,12.26-20.2,18.4-30.29,2-3.24,3.93-6.49,6.29-10.38C115.45,203,166.08,202.82,216.76,161.09Z"/><path d="M174.3,91.28c-22.57-8-44.22-8.14-66.87,0,2.57-4.35,4.51-7.69,6.5-11q11.19-18.6,22.41-37.17c3.3-5.43,5.67-5.47,8.88-.15C154.74,58.74,164.21,74.52,174.3,91.28Z"/><path d="M186.87,91.27c16.46-16.48,32.76-32.85,49.19-49.09.86-.85,2.89-.51,4.37-.72-.13,1.49-.23,3-.41,4.46,0,.27-.42.49-.66.73L190,96.06Z"/><path d="M95.43,90.51C93.8,93,93,94.26,91.94,95.86c-1.23-1.08-2.36-2-3.35-3Q66,70.22,43.51,47.5c-.82-.83-1.95-1.57-2.31-2.57s-.54-2.94.09-3.52,2.37-.32,3.58-.14c.55.08,1,.82,1.49,1.28Q70.85,66.47,95.43,90.51Z"/><path d="M138.28,219.27h5.37v8q0,24,0,47.9c0,1.33.22,2.79-.25,3.94s-1.67,2.43-2.55,2.43-2-1.36-2.7-2.35a4.67,4.67,0,0,1-.28-2.43q0-27.94,0-55.89A8,8,0,0,1,138.28,219.27Z"/><path d="M72.61,109.47c-2.31,2.82-4.06,4.43-7.74,2.87-16.66-7.09-33.45-13.86-50.19-20.75-.62-.25-1.45-.37-1.78-.83a38.89,38.89,0,0,1-2.15-3.84c1.38-.39,3-1.46,4.08-1.07,5.77,2.09,11.41,4.55,17.1,6.89Z"/><path d="M208.84,110c19.59-8.2,38.82-16.28,58.13-24.18,1-.41,2.61.78,3.94,1.22-.91,1.33-1.52,3.32-2.76,3.87-10.16,4.49-20.43,8.71-30.66,13-6.57,2.75-13.26,5.27-19.69,8.31C214.24,113.86,211.61,113.63,208.84,110Z"/><path d="M108,68.49c-2.62-6.2-5.26-12.4-7.85-18.61-4.72-11.33-9.49-22.63-14-34-.55-1.39.42-3.38.68-5.09,1.41,1,3.53,1.68,4.12,3,6.72,15.51,13.37,31.06,19.61,46.77.86,2.18-.62,5.29-1,8Z"/><path d="M174,68.47c-3.7-3.37-3.5-6.39-1.95-10C178.14,44.09,184,29.63,190,15.2a3.38,3.38,0,0,1,.65-1.33c1.33-1.1,2.75-2.1,4.14-3.14.31,1.7,1.35,3.69.81,5.06-4.84,12.37-9.95,24.63-15,36.91C178.43,57.87,176.25,63,174,68.47Z"/><path d="M86,101.26c-2.61,3.14-5.1,3-8.46.65C64.74,93,51.7,84.44,38.75,75.72a12.08,12.08,0,0,1-3-2.5,2.8,2.8,0,0,1-.08-2.62,5.26,5.26,0,0,1,2.74-1.55c.47-.13,1.2.45,1.75.82q22.76,15.22,45.5,30.51C85.84,100.54,85.9,101,86,101.26Z"/><path d="M195.78,100.9,212,90c9.68-6.48,19.31-13,29.1-19.33,1.34-.86,3.49-.45,5.27-.63-.72,1.72-1,4.17-2.24,5.06-13.31,9.13-26.84,17.93-40.17,27C200.94,104.25,198.63,104.35,195.78,100.9Z"/><path d="M111.47,219.9c-6.85,16.36-13.64,32.74-20.65,49-.45,1.07-2.51,1.45-3.82,2.16-.4-1.53-1.55-3.37-1.07-4.54,6.15-15.06,12.43-30.06,19-44.93.7-1.6,3.46-2.29,5.27-3.39Z"/><path d="M170.44,219.66c4.23-1.54,6-.15,7.41,3.26,5.78,14.12,11.84,28.12,17.73,42.2.82,2,2.77,4.73-.71,5.68-1.14.31-3.83-2-4.54-3.64C183.59,251.5,177.12,235.73,170.44,219.66Z"/><path d="M182.67,83.43c-3.61-3-3.3-5.52-1-8.84,8.15-11.72,16-23.66,23.94-35.5a13.37,13.37,0,0,1,2.76-3.47,3.26,3.26,0,0,1,3.05,0c.72.52,1,1.89,1.1,2.93.06.53-.54,1.18-.91,1.73C202,54.6,192.41,68.92,182.67,83.43Z"/><path d="M99.2,83.4C95.64,78.12,92.29,73.21,89,68.27,82.82,59,76.58,49.78,70.64,40.37c-.86-1.36-.22-3.66-.28-5.53,1.58.78,3.77,1.14,4.64,2.41C83.74,50,92.16,63,100.9,75.7,103.22,79.07,101.1,80.74,99.2,83.4Z"/><path d="M232.88,143.88c.45-2.2.79-3.81,1.21-5.86,14.57,0,29.14-.07,43.71.14,1.31,0,2.59,1.91,3.89,2.93-1.31.93-2.62,2.65-3.94,2.67C263,144,248.22,143.88,232.88,143.88Z"/><path d="M47.62,138l1.14,5.75c-15.08,0-29.86.08-44.63-.12-1.39,0-2.75-1.72-4.13-2.64,1.47-1,2.92-2.83,4.4-2.86C18.68,137.92,33,138,47.62,138Z"/><path d="M127.92,219.64c-2.82,14.11-5.56,28.23-8.57,42.29-.27,1.26-2.24,2.16-3.41,3.22-.64-1.49-2-3.12-1.8-4.45,2.41-13,5-26,7.87-38.92.34-1.49,2.94-2.48,4.49-3.7Z"/><path d="M153.67,219.5c3.75-1,5.65-.74,6.37,3.36,2.24,12.71,5.07,25.31,7.4,38,.27,1.47-1.15,3.26-1.78,4.89-1.16-1.18-3.06-2.2-3.35-3.56C159.31,248.13,156.57,234,153.67,219.5Z"/><path d="M221.61,122.08c14.48-2.93,27.3-5.59,40.17-8,1-.19,2.27,1.25,3.41,1.93-.84,1.24-1.49,3.36-2.55,3.59-11.2,2.41-22.43,4.72-33.74,6.53C227.12,126.4,224.92,124,221.61,122.08Z"/><path d="M58.13,121.5c-2.05,3.86-4.41,5-8.11,4.2-9.7-2.14-19.49-3.86-29.17-6.06-1.69-.39-3-2.3-4.53-3.51,1.79-.62,3.73-2,5.36-1.75C33.7,116.53,45.65,119,58.13,121.5Z"/><path d="M55.68,155c-1.3,4.44-3.53,6.73-8,7.44-9,1.42-17.91,3.6-26.9,5.16-1.31.23-2.92-1.24-4.39-1.92,1-1.26,1.8-3.38,3-3.63C31.37,159.54,43.41,157.34,55.68,155Z"/><path d="M226.27,155.05c12,2.3,24.11,4.5,36.1,7,1.18.25,2,2.42,2.93,3.69-1.33.68-2.8,2.13-4,1.92-10.14-1.79-20.29-3.62-30.28-6.09-2.16-.53-3.68-3.67-5.5-5.61Z"/><path d="M190.06,219.52c4.67-1.36,7.19,0,9.31,3.52,3.57,6,7.84,11.52,11.41,17.5.94,1.56.39,4,.52,6.05-1.68-.88-4-1.34-4.92-2.72C200.87,236,195.67,228,190.06,219.52Z"/><path d="M91.67,220.41c-5.71,8.48-11.36,17-17.23,25.38-.58.84-2.52.72-3.83,1-.24-1.45-1.19-3.35-.61-4.29,4.46-7.18,9-14.35,14.06-21.1,1.19-1.58,4.55-1.53,6.91-2.23Z"/><path d="M241.54,179.81c9,3.68,18,7.27,26.88,11.17,1.19.52,1.68,2.65,2.49,4-1.5.43-3.28,1.6-4.46,1.16a186.07,186.07,0,0,1-20-8.47c-2.5-1.29-4-4.53-5.94-6.88Z"/><path d="M66,220.15c-6.9,6.82-13.75,13.7-20.8,20.37-.72.68-2.65.08-4,.07,0-1.35-.49-3.25.21-4,5.52-5.73,11.1-11.44,17.08-16.67,1.47-1.29,4.5-.8,6.82-1.13Z"/><path d="M216.41,219.26c4.32-1.06,7.57.29,10.53,3.66,4.06,4.6,8.72,8.65,12.87,13.18.84.91.55,2.87.78,4.35-1.49,0-3.61.61-4.39-.15-6.77-6.58-13.31-13.4-19.9-20.18C216.17,220,216.38,219.52,216.41,219.26Z"/><path d="M40.9,179.27C39,185,36,187.76,31.37,189.35c-5.61,2-11,4.65-16.55,6.7-1.06.39-2.69-.73-4.05-1.16.54-1.22.77-3.16,1.68-3.56C21.61,187.28,30.88,183.47,40.9,179.27Z"/><path d="M143.63,28.19h-5.58c0-8.33-.11-16.43.12-24.52,0-1.25,1.64-2.45,2.53-3.67,1,1.31,2.75,2.58,2.8,3.92C143.76,11.86,143.63,19.81,143.63,28.19Z"/><path d="M162,49.28c-3.64-3.91-4.51-7.29-3.33-11.64,1.52-5.57,2.06-11.4,3.4-17,.38-1.62,2.06-2.92,3.15-4.37.78,1.74,2.46,3.63,2.2,5.2C165.92,30.54,164,39.56,162,49.28Z"/><path d="M119.8,48.45C117.92,39,116,29.59,114.31,20.12c-.19-1.11,1.45-2.53,2.25-3.81,1,.89,2.76,1.64,3,2.71,1.61,7.29,3.24,14.62,4.13,22,.29,2.41-1.6,5.08-2.49,7.64Z"/><path class="cls-1" d="M141.52,172.25c-18.08.63-33.58-14.2-34.12-32.63a33.45,33.45,0,0,1,66.87-1.87C175,156.18,160.33,171.6,141.52,172.25ZM140.77,158c10.76,0,19.19-8.21,19.21-18.71,0-11.05-8.15-19.51-18.93-19.6-11-.08-19.47,8.25-19.39,19C121.74,150,129.76,158.06,140.77,158Z"/><path class="cls-1" d="M102.18,117.35c-7.52,14.69-7.44,29.29.53,43.81l-1.14,1.12L69.09,138.87l31.65-23Z"/><path class="cls-1" d="M179,161.22c7.85-14.54,8.15-29.14.53-43.82,5.32.12,21.4,11.12,32,22.1l-31.39,22.83Z"/><path d="M140.77,158c-11,0-19-8.06-19.11-19.26-.08-10.8,8.39-19.13,19.39-19,10.78.09,19,8.55,18.93,19.6C160,149.83,151.53,158,140.77,158Z"/></g></g></svg>