<?xml version="1.0" encoding="utf-8"?>
<!-- Generator: Adobe Illustrator 24.2.3, SVG Export Plug-In . SVG Version: 6.00 Build 0)  -->
<svg version="1.1" id="Layer_1" xmlns="http://www.w3.org/2000/svg" xmlns:xlink="http://www.w3.org/1999/xlink" x="0px" y="0px"
	 viewBox="0 0 122.7 122.7" style="enable-background:new 0 0 122.7 122.7;" xml:space="preserve">
<style type="text/css">
	.st0{fill:none;}
</style>
<g>
	<path class="st0" d="M61.3,3.3c-32.1,0-58.1,26-58.1,58.1s26,58.1,58.1,58.1s58.1-26,58.1-58.1c0,0,0,0,0,0
		C119.4,29.3,93.4,3.3,61.3,3.3z M61.3,98.8l-2.6-2.6l32.9-33H23.8v-3.7h67.9l-33-33l2.6-2.7l37.5,37.5L61.3,98.8z"/>
	<polygon points="58.7,26.5 91.7,59.5 23.8,59.5 23.8,63.2 91.6,63.2 58.7,96.2 61.3,98.8 98.8,61.3 61.3,23.8 	"/>
	<path d="M61.3,0C27.5,0,0,27.5,0,61.3s27.5,61.3,61.3,61.3s61.3-27.5,61.3-61.3C122.6,27.5,95.2,0,61.3,0z M61.3,119.4
		c-32.1,0-58.1-26-58.1-58.1s26-58.1,58.1-58.1s58.1,26,58.1,58.1c0,0,0,0,0,0C119.4,93.4,93.4,119.4,61.3,119.4z"/>
</g>
</svg>
