<svg xmlns="http://www.w3.org/2000/svg" width="657.12" height="670.254" viewBox="0 0 657.12 670.254">
  <g>
    <path d="M287.112,227.679a22.368,22.368,0,0,0-12-12.752,21.018,21.018,0,0,0-16.5,0c-11.252,4.5-16.5,17.253-12,29.255l27.755,71.262c1.5,4.5-.75,10.5-5.251,12s-10.5-.75-12-5.251l-27-71.262c-.75-.75-.75-.75-.75-1.5L209.1,198.424a22.368,22.368,0,0,0-12-12.752,21.009,21.009,0,0,0-16.5,0c-11.252,4.5-16.5,17.253-12,29.255l.75,2.25,37.507,98.267c1.5,4.5-.75,10.5-5.251,12-.75.75-2.251.75-3,.75a9.555,9.555,0,0,1-8.251-6L151.339,220.928l-12-31.506a22.371,22.371,0,0,0-12-12.752,21.018,21.018,0,0,0-16.5,0c-11.252,4.5-16.5,17.253-12,29.255l18,46.508c0,.75.75,1.5.75,2.251v.75l33.006,84.014c1.5,4.5-.75,10.5-5.251,12-.75.75-2.25.75-3,.75a9.555,9.555,0,0,1-8.251-6l-33.755-87.015c-3-5.25-7.5-9.751-12.753-12a20.937,20.937,0,0,0-15-.75c-11.252,4.5-16.5,17.253-12,29.255l63.76,160.527c1.5,3.751.75,8.252-2.25,10.5s-7.5,3-10.5.75l-56.26-33.755a.735.735,0,0,0-.75-.751,22.61,22.61,0,0,0-15.753-3.75,20.732,20.732,0,0,0-14.253,9c-6.751,10.5-4.5,24.755,5.251,32.256.75.75,90.766,72.763,121.521,95.266,34.506,24,78.764,28.505,120.02,12,67.512-27,100.517-103.517,75.764-174.029Z" fill="#fff"/>
    <path d="M596.165,359.7c-18,7.5-69.762,27.755-72.013,28.5a10.409,10.409,0,0,1-6.751,0c-39.756-16.5-58.509-.75-78.763,15.753a9.079,9.079,0,1,1-11.252-14.252c21-16.5,46.508-37.507,93.766-19.5,3.751-1.5,11.252-4.5,19.5-7.5l49.509-134.273c2.25-5.251,1.5-12-.75-17.253a26.491,26.491,0,0,0-12.752-11.252c-9.752-3.75-22.5,2.251-27.755,12.752l-35.256,97.517a9.748,9.748,0,0,1-9,6c-.75,0-2.25-.75-3-.75a10.135,10.135,0,0,1-5.251-12l33.756-93.016c.75,0,.75-.75.75-1.5.75-1.5.75-2.251,1.5-3.751l16.5-45.008c2.25-5.25,1.5-12-.75-17.252A26.484,26.484,0,0,0,535.4,131.663c-11.252-3.751-24,2.25-28.5,14.252l-11.252,31.5L456.641,288.439a9.746,9.746,0,0,1-9,6c-.75,0-2.251-.75-3-.75-5.251-2.25-7.5-7.5-6-12L476.145,172.92l.75-2.251a24.741,24.741,0,0,0-.75-18,26.489,26.489,0,0,0-12.753-11.252c-11.252-3.75-24,2.251-28.5,14.253l-18.753,51.759c-.75.75-.75.75-.75,1.5l-27,76.513a9.748,9.748,0,0,1-9,6c-.75,0-2.251-.75-3-.75a10.137,10.137,0,0,1-5.251-12l27-76.513c2.25-5.251,1.5-12-.75-17.253a26.482,26.482,0,0,0-12.752-11.252c-11.252-3.751-24,2.25-28.5,14.252l-30.755,87.765,39.756,102.018a159.509,159.509,0,0,1-3.75,116.27,36.564,36.564,0,0,1-2.25,5.25,121.169,121.169,0,0,0,26.254,12.753c42.007,15,88.515,9,122.271-16.5,30.755-23.254,121.52-98.267,122.27-99.017a22.694,22.694,0,0,0,3.751-32.256C623.919,350.7,605.917,355.951,596.165,359.7Z" fill="#fff"/>
    <path d="M589.414,343.2c-6,2.25-15,6-25.5,10.5l43.508-119.27a41.616,41.616,0,0,0-1.5-31.5,40.2,40.2,0,0,0-23.254-21,35.37,35.37,0,0,0-23.254-.75l5.251-15a41.611,41.611,0,0,0-1.5-31.5,40.2,40.2,0,0,0-23.254-21c-21-7.5-44.257,3.75-51.759,24a44.759,44.759,0,0,0-18.752-14.253c-21-7.5-44.258,3.751-52.51,24.755l-7.5,21a38,38,0,0,0-18.753-13.5c-21-7.5-44.258,3.75-52.509,25.5l-24,67.512-11.252-28.5a41.437,41.437,0,0,0-21.754-23.254,37.947,37.947,0,0,0-30-.75,42.474,42.474,0,0,0-18,14.252l-8.251-20.253A41.434,41.434,0,0,0,203.1,166.919a37.951,37.951,0,0,0-30.005-.751,42.478,42.478,0,0,0-18,14.253,43.877,43.877,0,0,0-21.754-21.754,37.955,37.955,0,0,0-30.005-.75c-20.253,8.251-30.755,32.256-22.5,53.259l6,15c-7.5-1.5-15-1.5-22.5,1.5-20.253,8.251-30.755,32.256-22.5,53.259L95.08,415.961l-32.256-19.5c-9-6-19.5-9-29.255-7.5a38.29,38.29,0,0,0-26.255,16.5c-12.752,18-8.251,43.508,9,57.01,6.751,6.751,93.766,75.763,125.271,98.267a139.773,139.773,0,0,0,80.264,25.5,154.283,154.283,0,0,0,57.01-11.252c29.255-12,54.009-32.256,70.512-59.26a132.178,132.178,0,0,0,29.255,14.252,162.089,162.089,0,0,0,53.259,9,145.635,145.635,0,0,0,87.015-28.5c31.5-23.254,117.77-95.266,123.021-99.767,17.253-13.5,20.253-39.757,6.751-57.01C635.922,337.2,613.418,333.447,589.414,343.2ZM271.359,557.735c-41.256,16.5-85.514,12-120.02-12-30.755-22.5-120.771-94.516-121.521-95.266-9.751-7.5-12-21.754-5.251-32.256a20.732,20.732,0,0,1,14.253-9,22.61,22.61,0,0,1,15.753,3.75.735.735,0,0,1,.75.751l56.26,33.755c3,2.251,7.5,1.5,10.5-.75s3.751-6.751,2.25-10.5L60.574,275.687c-4.5-12,.75-24.754,12-29.255a20.937,20.937,0,0,1,15,.75c5.251,2.251,9.752,6.752,12.753,12L134.086,346.2a9.555,9.555,0,0,0,8.251,6c.751,0,2.251,0,3-.75,4.5-1.5,6.751-7.5,5.251-12l-33.006-84.014v-.75c0-.75-.75-1.5-.75-2.251l-18-46.508c-4.5-12,.75-24.754,12-29.255a21.018,21.018,0,0,1,16.5,0,22.371,22.371,0,0,1,12,12.752l12,31.506L190.346,322.2a9.555,9.555,0,0,0,8.251,6c.75,0,2.251,0,3-.75,4.5-1.5,6.751-7.5,5.251-12l-37.507-98.267-.75-2.25c-4.5-12,.75-24.754,12-29.255a21.009,21.009,0,0,1,16.5,0,22.368,22.368,0,0,1,12,12.752l20.254,51.009c0,.75,0,.75.75,1.5l27,71.262c1.5,4.5,7.5,6.751,12,5.251s6.751-7.5,5.251-12l-27.755-71.262c-4.5-12,.75-24.754,12-29.255a21.018,21.018,0,0,1,16.5,0,22.368,22.368,0,0,1,12,12.752l60.011,156.027C371.876,454.218,338.871,530.73,271.359,557.735ZM629.92,396.458c-.75.75-91.515,75.763-122.27,99.017-33.756,25.5-80.264,31.5-122.271,16.5a121.169,121.169,0,0,1-26.254-12.753,36.564,36.564,0,0,0,2.25-5.25,159.509,159.509,0,0,0,3.75-116.27L325.369,275.687l30.755-87.765c4.5-12,17.253-18,28.5-14.252a26.482,26.482,0,0,1,12.752,11.252c2.25,5.251,3,12,.75,17.253l-27,76.513a10.137,10.137,0,0,0,5.251,12c.75,0,2.251.75,3,.75a9.748,9.748,0,0,0,9-6l27-76.513c0-.75,0-.75.75-1.5l18.753-51.759c4.5-12,17.253-18,28.5-14.253a26.489,26.489,0,0,1,12.753,11.252,24.741,24.741,0,0,1,.75,18l-.75,2.251L438.638,281.688c-1.5,4.5.75,9.752,6,12,.75,0,2.251.75,3,.75a9.746,9.746,0,0,0,9-6L495.647,177.42l11.252-31.5c4.5-12,17.253-18,28.5-14.252a26.484,26.484,0,0,1,12.753,11.252c2.25,5.251,3,12,.75,17.252l-16.5,45.008c-.75,1.5-.75,2.251-1.5,3.751,0,.75,0,1.5-.75,1.5L496.4,303.442a10.135,10.135,0,0,0,5.251,12c.75,0,2.25.75,3,.75a9.748,9.748,0,0,0,9-6l35.256-97.517c5.251-10.5,18-16.5,27.755-12.752a26.491,26.491,0,0,1,12.752,11.252c2.25,5.251,3,12,.75,17.253L540.655,362.7c-8.251,3-15.752,6-19.5,7.5-47.258-18-72.762,3-93.766,19.5a9.079,9.079,0,1,0,11.252,14.252c20.254-16.5,39.007-32.256,78.763-15.753a10.409,10.409,0,0,0,6.751,0c2.251-.75,54.01-21,72.013-28.5,9.752-3.75,27.754-9,37.506,4.5A22.694,22.694,0,0,1,629.92,396.458Z" fill="#010101"/>
    <path d="M118.333,94.906l46.508,30.006a10.847,10.847,0,0,0,5.251,1.5,8.251,8.251,0,0,0,7.5-4.5c3-4.5,1.5-9.752-3-12.752L128.085,79.154c-4.5-3-9.752-1.5-12.752,3S113.833,91.906,118.333,94.906Z" fill="#010101"/>
    <path d="M227.852,87.405a9.045,9.045,0,0,0,9,6c.75,0,2.25,0,3-.75a9.832,9.832,0,0,0,6-12l-25.5-74.263a9.833,9.833,0,0,0-12-6,9.832,9.832,0,0,0-6,12Z" fill="#010101"/>
    <path d="M308.866,80.654c.75.75,2.25.75,3,.75,3.751,0,7.5-2.25,8.252-6l18.753-51.759a10.137,10.137,0,0,0-5.251-12,10.136,10.136,0,0,0-12,5.251L302.865,68.652A9.832,9.832,0,0,0,308.866,80.654Z" fill="#010101"/>
    <path d="M374.877,598.242c-4.5-1.5-9.752,1.5-11.252,6l-15.752,52.509c-1.5,4.5,1.5,9.752,6,11.252.75,0,1.5.75,3,.75a9.426,9.426,0,0,0,9-6.751l15.753-52.509C382.378,604.993,380.128,599.742,374.877,598.242Z" fill="#010101"/>
    <path d="M452.891,584.74a9.263,9.263,0,1,0-17.253,6.751l30,72.762a9.555,9.555,0,0,0,8.251,6,6.765,6.765,0,0,0,3.751-.75,10.136,10.136,0,0,0,5.251-12Z" fill="#010101"/>
    <path d="M562.409,566.737l-48.008-27c-4.5-2.25-9.752-.75-12.752,3.751-2.251,4.5-.751,9.751,3.75,12.752l48.009,27a10.66,10.66,0,0,0,4.5,1.5,10.365,10.365,0,0,0,8.252-4.5C568.41,574.988,566.91,569.737,562.409,566.737Z" fill="#010101"/>
  </g>
</svg>
